# xmcd CD database file
#
# Track frame offsets:
#	150
#	18027
#	40925
#	59019
#	76896
#
# Disc length: 1326 seconds
#
# Revision: 3
# Processed by: cddbd v1.5.1PL0 Copyright (c) Steve Scherf et al.
# Submitted via: CDex 1.51
#
DISCID=33052c05
DTITLE=大塚愛 - さくらんぼ
DYEAR=2003
DGENRE=JPop
TTITLE0=さくらんぼ
TTITLE1=帰り道
TTITLE2=桃ノ花ビラ （スタジオライブ Ver.）
TTITLE3=さくらんぼ (Instrumental)
TTITLE4=帰り道 (Instrumental)
EXTD=YEAR: 2003
EXTT0=
EXTT1=
EXTT2=
EXTT3=
EXTT4=
PLAYORDER=
